{
	"asset":{
		"generator":"Khronos glTF Blender I/O v4.1.63",
		"version":"2.0"
	},
	"scene":0,
	"scenes":[
		{
			"name":"Scene",
			"nodes":[
				0,
				1,
				2
			]
		}
	],
	"nodes":[
		{
			"mesh":0,
			"name":"ProjectLeft",
			"scale":[
				0.09011396020650864,
				1.4831842184066772,
				0.9803775548934937
			],
			"translation":[
				-0.09660712629556656,
				0,
				0.0594143271446228
			]
		},
		{
			"mesh":1,
			"name":"ProjectRight",
			"scale":[
				0.09011396020650864,
				1.4831842184066772,
				0.9803775548934937
			],
			"translation":[
				0.08495596796274185,
				-4.784277189173736e-05,
				0.05934569984674454
			]
		},
		{
			"mesh":2,
			"name":"ProjectBack",
			"rotation":[
				0,
				0,
				-1,
				0
			],
			"scale":[
				-0.18126395344734192,
				-1.4831842184066772,
				-0.005457541439682245
			],
			"translation":[
				-0.0060454122722148895,
				0,
				1.0457334518432617
			]
		}
	],
	"materials":[
		{
			"doubleSided":true,
			"name":"Material",
			"pbrMetallicRoughness":{
				"baseColorFactor":[
					0.027488552033901215,
					0.027488552033901215,
					0.027488552033901215,
					1
				],
				"metallicFactor":0,
				"roughnessFactor":0.29816514253616333
			}
		}
	],
	"meshes":[
		{
			"name":"Cube",
			"primitives":[
				{
					"attributes":{
						"POSITION":0,
						"NORMAL":1,
						"TEXCOORD_0":2
					},
					"indices":3,
					"material":0
				}
			]
		},
		{
			"name":"Cube.001",
			"primitives":[
				{
					"attributes":{
						"POSITION":4,
						"NORMAL":5,
						"TEXCOORD_0":6
					},
					"indices":7,
					"material":0
				}
			]
		},
		{
			"name":"Cube.002",
			"primitives":[
				{
					"attributes":{
						"POSITION":8,
						"NORMAL":9,
						"TEXCOORD_0":10
					},
					"indices":11,
					"material":0
				}
			]
		}
	],
	"accessors":[
		{
			"bufferView":0,
			"componentType":5126,
			"count":51,
			"max":[
				1,
				1,
				1
			],
			"min":[
				-1.0000001192092896,
				-1,
				-1
			],
			"type":"VEC3"
		},
		{
			"bufferView":1,
			"componentType":5126,
			"count":51,
			"type":"VEC3"
		},
		{
			"bufferView":2,
			"componentType":5126,
			"count":51,
			"type":"VEC2"
		},
		{
			"bufferView":3,
			"componentType":5123,
			"count":117,
			"type":"SCALAR"
		},
		{
			"bufferView":4,
			"componentType":5126,
			"count":29,
			"max":[
				1,
				1,
				1
			],
			"min":[
				-1,
				-1,
				-1
			],
			"type":"VEC3"
		},
		{
			"bufferView":5,
			"componentType":5126,
			"count":29,
			"type":"VEC3"
		},
		{
			"bufferView":6,
			"componentType":5126,
			"count":29,
			"type":"VEC2"
		},
		{
			"bufferView":7,
			"componentType":5123,
			"count":57,
			"type":"SCALAR"
		},
		{
			"bufferView":8,
			"componentType":5126,
			"count":20,
			"max":[
				1,
				1,
				1
			],
			"min":[
				-1,
				-1,
				-1
			],
			"type":"VEC3"
		},
		{
			"bufferView":9,
			"componentType":5126,
			"count":20,
			"type":"VEC3"
		},
		{
			"bufferView":10,
			"componentType":5126,
			"count":20,
			"type":"VEC2"
		},
		{
			"bufferView":11,
			"componentType":5123,
			"count":30,
			"type":"SCALAR"
		}
	],
	"bufferViews":[
		{
			"buffer":0,
			"byteLength":612,
			"byteOffset":0,
			"target":34962
		},
		{
			"buffer":0,
			"byteLength":612,
			"byteOffset":612,
			"target":34962
		},
		{
			"buffer":0,
			"byteLength":408,
			"byteOffset":1224,
			"target":34962
		},
		{
			"buffer":0,
			"byteLength":234,
			"byteOffset":1632,
			"target":34963
		},
		{
			"buffer":0,
			"byteLength":348,
			"byteOffset":1868,
			"target":34962
		},
		{
			"buffer":0,
			"byteLength":348,
			"byteOffset":2216,
			"target":34962
		},
		{
			"buffer":0,
			"byteLength":232,
			"byteOffset":2564,
			"target":34962
		},
		{
			"buffer":0,
			"byteLength":114,
			"byteOffset":2796,
			"target":34963
		},
		{
			"buffer":0,
			"byteLength":240,
			"byteOffset":2912,
			"target":34962
		},
		{
			"buffer":0,
			"byteLength":240,
			"byteOffset":3152,
			"target":34962
		},
		{
			"buffer":0,
			"byteLength":160,
			"byteOffset":3392,
			"target":34962
		},
		{
			"buffer":0,
			"byteLength":60,
			"byteOffset":3552,
			"target":34963
		}
	],
	"buffers":[
		{
			"byteLength":3612,
			"uri":"project.bin"
		}
	]
}
